<svg xmlns="http://www.w3.org/2000/svg" viewBox="0 0 260 44" width="260" height="44" role="img" aria-label="Golden ornament with a glowing blue orb travelling along the line">
  <defs>
    <radialGradient id="halo" cx="0.5" cy="0.5" r="0.5">
      <stop offset="0" stop-color="#3FC6DA" stop-opacity="0.35"/>
      <stop offset="1" stop-color="#3FC6DA" stop-opacity="0"/>
    </radialGradient>
    <radialGradient id="orbGlow" cx="0.5" cy="0.5" r="0.5">
      <stop offset="0" stop-color="#E4FBFE" stop-opacity="0.95"/>
      <stop offset="0.5" stop-color="#5FCEE0" stop-opacity="0.8"/>
      <stop offset="1" stop-color="#2BB6D8" stop-opacity="0"/>
    </radialGradient>
  </defs>

  <!-- golden lines -->
  <line x1="18" y1="22" x2="107" y2="22" stroke="#C9A45C" stroke-width="1" opacity="0.55"/>
  <line x1="153" y1="22" x2="242" y2="22" stroke="#C9A45C" stroke-width="1" opacity="0.55"/>

  <!-- end dots -->
  <circle cx="18" cy="22" r="1.5" fill="#C9A45C" opacity="0.7"/>
  <circle cx="242" cy="22" r="1.5" fill="#C9A45C" opacity="0.7"/>

  <!-- small side diamonds -->
  <path d="M53 22 L56 19 L59 22 L56 25 Z" fill="#C9A45C" opacity="0.5"/>
  <path d="M201 22 L204 19 L207 22 L204 25 Z" fill="#C9A45C" opacity="0.5"/>
  <path d="M109 22 L112 19 L115 22 L112 25 Z" fill="#C9A45C" opacity="0.65"/>
  <path d="M145 22 L148 19 L151 22 L148 25 Z" fill="#C9A45C" opacity="0.65"/>

  <!-- center diamond -->
  <path d="M130 9 L140 22 L130 35 L120 22 Z" fill="none" stroke="#C9A45C" stroke-width="1.2" opacity="0.95"/>
  <path d="M130 13.5 L134.5 22 L130 30.5 L125.5 22 Z" fill="#C9A45C" opacity="0.95"/>

  <!-- travelling blue orb with intermittent glow -->
  <g>
    <animate attributeName="opacity" values="0.35;0.15;0.1;1;0.45;0.35;0.12;0.12;0.9;0.35" dur="10s" repeatCount="indefinite"/>
    <circle cy="22" r="18" fill="url(#halo)">
      <animate attributeName="cx" values="18;242;18" dur="8s" repeatCount="indefinite"/>
    </circle>
    <circle cy="22" r="9" fill="url(#orbGlow)">
      <animate attributeName="cx" values="18;242;18" dur="8s" repeatCount="indefinite"/>
    </circle>
    <circle cy="22" r="6" fill="none" stroke="#7FD3E0" stroke-width="0.8">
      <animate attributeName="cx" values="18;242;18" dur="8s" repeatCount="indefinite"/>
      <animate attributeName="opacity" values="0.4;0.7;0.4" dur="2.4s" repeatCount="indefinite"/>
    </circle>
    <circle cy="22" r="3" fill="#E4FBFE">
      <animate attributeName="cx" values="18;242;18" dur="8s" repeatCount="indefinite"/>
    </circle>
  </g>
</svg>
